# xmcd
#
# Track frame offsets:
#	150
#	22199
#	27757
#	41376
#	59946
#	75519
#	91942
#	104228
#	111456
#	114420
#	134314
#	148178
#	156328
#	175411
#	191506
#	204860
#	220518
#	231730
#	239447
#	247093
#	262312
#	271973
#	274140
#	279210
#	288090
#	302373
#	318337
#	326144
#	330208
#	334529
#	343826
#	350033
#
# Disc length: 4741 seconds
#
# Revision: 1
# Processed by: cddbd v1.5PL3 Copyright (c) Steve Scherf et al.
# Submitted via: audiograbber 1.81.03
#
DISCID=f2128320
DTITLE=Various Artist - Great Bluesmen In Britian
DYEAR=2002
DGENRE=Blues
TTITLE0=Blues all Around My Bed - Sonny Terry and Brownie McGhee
TTITLE1=Uncle Bud (Billy Goat Blues) - Sonny Terry and Brownie McGhee
TTITLE2=It Takes a Worried Man - Sonny Terry and Brownie McGhee
TTITLE3=I Was Fooled (Jivin' all the Time)(She Fooled Me) - Sonny Terry and Brown
TTITLE3=ie McGhee
TTITLE4=Easy Ridin' Buggy - Sonny Terry and Brownie McGhee
TTITLE5=In the Evenin' - Sonny Terry and Brownie McGhee
TTITLE6=Broke Down Engine - Sonny Terry and Brownie McGhee
TTITLE7=Fox Chase - Sonny Terry and Brownie McGhee
TTITLE8=Untitled Fragment - Sonny Terry and Brownie McGhee
TTITLE9=Sporting Life Blues - Sonny Terry and Brownie McGhee
TTITLE10=Hey Lawdy Mama (Boots and Shoes) - Sonny Terry and Brownie McGhee
TTITLE11=Bad Bad Whiskey - Sonny Terry and Brownie McGhee
TTITLE12=Georgia Ham (Georgia Ham Mama) - Sonny Terry and Brownie McGhee
TTITLE13=So Sweet, So Sweet (Little Woman Your're so Sweet - Sonny Terry and Brow
TTITLE13=nie McGhee
TTITLE14=Ham and Eggs (I Gotta Roll) - Sonny Terry and Brownie McGhee
TTITLE15=Hey Bub! Blues - Big Bill Broonzy
TTITLE16=Midnight Special - Big Bill Broonzy
TTITLE17=Careless Love - Big Bill Broonzy
TTITLE18=In a Shanty in Old Shanty Town - Big Bill Broonzy
TTITLE19=Keep Your Hand on Your Heart - Big Bill Broonzy
TTITLE20=Kansas City Blues (I'm Gonna Move to Kansas City) - Big Bill Broonzy
TTITLE21=My Guitar is as Old as Father Time - Josh White
TTITLE22=Conversation - Josh White
TTITLE23=Take a Gal Like You - Josh White
TTITLE24=You won't Let Me Go - Josh White
TTITLE25=Backwater Blues - Josh White
TTITLE26=Baby Baby Baby - Josh White
TTITLE27=Conversation - Josh White
TTITLE28='Twas on a Monday (On a Monday) - Josh White
TTITLE29=John Henry - Josh White
TTITLE30=He's a Dyin' Bed Maker (Jesus Gonna Make Up My Dying Bed) - Josh White
TTITLE31=Howlin' Wolf Blues - Josh White
EXTD=Various Artists     
EXTT0=
EXTT1=
EXTT2=
EXTT3=
EXTT4=
EXTT5=
EXTT6=
EXTT7=
EXTT8=
EXTT9=
EXTT10=
EXTT11=
EXTT12=
EXTT13=
EXTT14=
EXTT15=
EXTT16=
EXTT17=
EXTT18=
EXTT19=
EXTT20=
EXTT21=
EXTT22=
EXTT23=
EXTT24=
EXTT25=
EXTT26=
EXTT27=
EXTT28=
EXTT29=
EXTT30=
EXTT31=
PLAYORDER=
